<svg width="19" height="20" viewBox="0 0 19 20" fill="none" xmlns="http://www.w3.org/2000/svg">
<path fill-rule="evenodd" clip-rule="evenodd" d="M4.21787 14.957H16.8389C17.1149 14.957 17.3389 14.733 17.3389 14.457V2.45703C17.3389 2.18103 17.1149 1.95703 16.8389 1.95703H2.83887C2.56287 1.95703 2.33887 2.18103 2.33887 2.45703V16.836L3.77887 15.396L4.21787 14.957ZM2.33887 18.957L2.30587 18.99L2.04587 19.25L1.69287 19.603C1.37787 19.918 0.838867 19.695 0.838867 19.25V2.45703C0.838867 1.35203 1.73387 0.457031 2.83887 0.457031H16.8389C17.9439 0.457031 18.8389 1.35203 18.8389 2.45703V14.457C18.8389 15.562 17.9439 16.457 16.8389 16.457H4.83887L2.33887 18.957ZM9.83887 3.45703C10.3909 3.45703 10.8389 3.90503 10.8389 4.45703V8.45703C10.8389 9.00903 10.3909 9.45703 9.83887 9.45703C9.28687 9.45703 8.83887 9.00903 8.83887 8.45703V4.45703C8.83887 3.90503 9.28687 3.45703 9.83887 3.45703ZM9.83887 13.207C10.5289 13.207 11.0889 12.647 11.0889 11.957C11.0889 11.267 10.5289 10.707 9.83887 10.707C9.14887 10.707 8.58887 11.267 8.58887 11.957C8.58887 12.647 9.14887 13.207 9.83887 13.207Z" fill="#030303"/>
</svg>
