<svg width="17" height="20" viewBox="0 0 17 20" fill="none" xmlns="http://www.w3.org/2000/svg">
<path fill-rule="evenodd" clip-rule="evenodd" d="M1.58887 0.457031H0.838867V18.707C0.838867 19.121 1.17487 19.457 1.58887 19.457C2.00287 19.457 2.33887 19.121 2.33887 18.707V11.457H7.83887L8.42387 12.627C8.67787 13.136 9.19787 13.457 9.76587 13.457H15.3389C16.1669 13.457 16.8389 12.785 16.8389 11.957V3.95703C16.8389 3.12903 16.1669 2.45703 15.3389 2.45703H9.83887L9.25387 1.28703C8.99887 0.777031 8.47887 0.457031 7.91187 0.457031H1.58887ZM2.33887 9.95703H8.76587L9.18087 10.787L9.76587 11.957H15.3389V3.95703H8.91187L8.49687 3.12703L7.91187 1.95703H2.33887V9.95703Z" fill="#030303"/>
</svg>
