<svg width="22" height="18" viewBox="0 0 22 18" fill="none" xmlns="http://www.w3.org/2000/svg">
<path fill-rule="evenodd" clip-rule="evenodd" d="M11 4.74986L10.228 4.28585L6.042 1.77486L1.5 4.80286V11.1099L11 16.2899L20.5 11.1089V4.80286L15.958 1.77486L11.772 4.28585L11 4.74986ZM11 2.99986L6.814 0.487855C6.317 0.189855 5.692 0.204855 5.21 0.526855L0.668 3.55485C0.251 3.83285 0 4.29985 0 4.80286V11.1099C0 11.6579 0.3 12.1639 0.782 12.4259L10.282 17.6079C10.729 17.8519 11.271 17.8519 11.718 17.6079L21.218 12.4259C21.7 12.1639 22 11.6579 22 11.1099V4.80286C22 4.30086 21.75 3.83285 21.332 3.55485L16.79 0.526855C16.308 0.204855 15.683 0.189855 15.186 0.487855L11 2.99986ZM14.5 9.24986C14.5 9.93986 13.94 10.4999 13.25 10.4999C12.56 10.4999 12 9.93986 12 9.24986C12 8.55986 12.56 7.99986 13.25 7.99986C13.94 7.99986 14.5 8.55986 14.5 9.24986ZM6 4.99986C5.586 4.99986 5.25 5.33586 5.25 5.74986V7.24986H3.75C3.336 7.24986 3 7.58586 3 7.99986C3 8.41386 3.336 8.74986 3.75 8.74986H5.25V10.2499C5.25 10.6639 5.586 10.9999 6 10.9999C6.414 10.9999 6.75 10.6639 6.75 10.2499V8.74986H8.25C8.664 8.74986 9 8.41386 9 7.99986C9 7.58586 8.664 7.24986 8.25 7.24986H6.75V5.74986C6.75 5.33586 6.414 4.99986 6 4.99986ZM16.75 7.99986C17.44 7.99986 18 7.43986 18 6.74986C18 6.05986 17.44 5.49986 16.75 5.49986C16.06 5.49986 15.5 6.05986 15.5 6.74986C15.5 7.43986 16.06 7.99986 16.75 7.99986Z" fill="#030303"/>
</svg>
