<svg width="21" height="21" viewBox="0 0 21 21" fill="none" xmlns="http://www.w3.org/2000/svg">
<path fill-rule="evenodd" clip-rule="evenodd" d="M2.33887 10.457C2.33887 15.151 6.14487 18.957 10.8389 18.957C15.5329 18.957 19.3389 15.151 19.3389 10.457C19.3389 5.76303 15.5329 1.95703 10.8389 1.95703C6.14487 1.95703 2.33887 5.76303 2.33887 10.457ZM10.8389 0.457031C5.31587 0.457031 0.838867 4.93403 0.838867 10.457C0.838867 15.98 5.31587 20.457 10.8389 20.457C16.3619 20.457 20.8389 15.98 20.8389 10.457C20.8389 4.93403 16.3619 0.457031 10.8389 0.457031ZM13.0839 7.96203V7.95903L13.0809 7.91403C13.0769 7.87003 13.0689 7.80003 13.0509 7.71403C13.0169 7.54003 12.9479 7.31403 12.8169 7.09503C12.5829 6.70503 12.0829 6.21203 10.8389 6.21203C9.59487 6.21203 9.09487 6.70603 8.86087 7.09503C8.72987 7.31503 8.66087 7.54003 8.62587 7.71503C8.60887 7.80003 8.60087 7.87003 8.59687 7.91503L8.59387 7.95903V7.96303C8.58987 8.37803 8.25387 8.71203 7.83887 8.71203C7.42187 8.71203 7.08387 8.37403 7.08387 7.95703V7.93503L7.08487 7.89903L7.09287 7.78503C7.10087 7.69303 7.11587 7.56703 7.14587 7.41803C7.20387 7.12403 7.32287 6.72403 7.56587 6.31803C8.08287 5.45803 9.08287 4.70203 10.8389 4.70203C12.5949 4.70203 13.5949 5.45803 14.1109 6.31903C14.3549 6.72403 14.4739 7.12403 14.5319 7.41903C14.5619 7.56703 14.5779 7.69303 14.5849 7.78503L14.5929 7.89903V7.93503L14.5939 7.94803V7.95603L13.8389 7.95703H14.5939C14.5939 8.75603 14.3449 9.35403 13.9179 9.80403C13.5439 10.199 13.0649 10.438 12.7159 10.612L12.6759 10.632C12.2779 10.832 12.0299 10.965 11.8559 11.148C11.7199 11.291 11.5939 11.506 11.5939 11.957C11.5939 12.374 11.2559 12.712 10.8389 12.712C10.4219 12.712 10.0839 12.374 10.0839 11.957C10.0839 11.158 10.3329 10.56 10.7599 10.11C11.1339 9.71503 11.6129 9.47603 11.9619 9.30203L12.0019 9.28203C12.3999 9.08203 12.6479 8.94903 12.8219 8.76603C12.9569 8.62303 13.0829 8.41003 13.0839 7.96203ZM10.8389 16.707C11.5289 16.707 12.0889 16.147 12.0889 15.457C12.0889 14.767 11.5289 14.207 10.8389 14.207C10.1489 14.207 9.58887 14.767 9.58887 15.457C9.58887 16.147 10.1489 16.707 10.8389 16.707Z" fill="#030303"/>
</svg>
