<svg width="22" height="20" viewBox="0 0 22 20" fill="none" xmlns="http://www.w3.org/2000/svg">
<path fill-rule="evenodd" clip-rule="evenodd" d="M21.1459 10.146C21.216 10.2159 21.2637 10.3049 21.2831 10.402C21.3025 10.499 21.2927 10.5996 21.2549 10.691C21.2171 10.7824 21.153 10.8606 21.0708 10.9156C20.9886 10.9706 20.8919 11 20.7929 11H18.9999V18.5C18.9999 18.8978 18.8419 19.2794 18.5606 19.5607C18.2793 19.842 17.8978 20 17.4999 20H12.9999V12H8.99993V20H4.49993C4.1021 20 3.72057 19.842 3.43927 19.5607C3.15796 19.2794 2.99993 18.8978 2.99993 18.5V11H1.20693C1.10799 11 1.01128 10.9706 0.929049 10.9156C0.846813 10.8606 0.782744 10.7824 0.744951 10.691C0.707157 10.5996 0.697338 10.499 0.716737 10.402C0.736135 10.3049 0.783879 10.2159 0.853925 10.146L10.9999 0L21.1459 10.146Z" fill="#030303"/>
</svg>
