<svg width="14" height="19" viewBox="0 0 14 19" fill="none" xmlns="http://www.w3.org/2000/svg">
<path d="M6.83887 0.45752C5.17887 0.45752 3.83887 1.82752 3.83887 3.52752V9.38752C3.83887 11.0875 5.17887 12.4575 6.83887 12.4575C8.49887 12.4575 9.83887 11.0875 9.83887 9.38752V3.52752C9.83887 1.82752 8.49887 0.45752 6.83887 0.45752ZM13.3389 9.45752H12.3389C12.3389 12.4875 9.86887 14.9575 6.83887 14.9575C3.80887 14.9575 1.33887 12.4875 1.33887 9.45752H0.338867C0.338867 12.6975 2.72887 15.3875 5.83887 15.8675V18.4575H7.83887V15.8675C10.9489 15.3875 13.3389 12.6975 13.3389 9.45752Z" fill="black"/>
</svg>
