<svg width="20" height="18" viewBox="0 0 20 18" fill="none" xmlns="http://www.w3.org/2000/svg">
<path fill-rule="evenodd" clip-rule="evenodd" d="M0 2.121V0L0.94 0.94L1.5 1.5L2 2L2.94 1.06L3.06 0.94L4 0L4.94 0.94L5.06 1.06L6 2L6.94 1.06L7.06 0.94L8 0L8.94 0.94L9.06 1.06L10 2L10.94 1.06L11.06 0.94L12 0L12.94 0.94L13.06 1.06L14 2L14.94 1.06L15.06 0.94L16 0L16.94 0.94L17.06 1.06L18 2L18.5 1.5L19.06 0.94L20 0V16C20 17.105 19.105 18 18 18H2C0.895 18 0 17.105 0 16V2.121ZM8.75 16.5H4.25V11.25H8.75V16.5ZM10 16.5V10H3V16.5H2C1.724 16.5 1.5 16.276 1.5 16V4.65L4.014 2.136L4.939 3.061L6 4.12L7.06 3.06L8 2.12L8.94 3.06L10 4.12L11.06 3.06L12 2.12L12.94 3.06L14 4.12L15.06 3.06L15.986 2.135L18.5 4.65V16C18.5 16.276 18.276 16.5 18 16.5H10ZM17 6V8H3V6H17ZM12 10H17V11.5H12V10ZM17 13H12V14.5H17V13Z" fill="#030303"/>
</svg>
