<svg width="20" height="20" viewBox="0 0 20 20" fill="none" xmlns="http://www.w3.org/2000/svg">
<path fill-rule="evenodd" clip-rule="evenodd" d="M5.27777 2.933C6.67477 1.999 8.31777 1.5 9.99977 1.5C11.6808 1.5 13.3248 1.999 14.7218 2.933C16.1198 3.867 17.2098 5.194 17.8518 6.747C18.4958 8.3 18.6648 10.009 18.3368 11.658C18.0088 13.308 17.1988 14.822 16.0098 16.01C15.7168 16.303 15.7168 16.778 16.0098 17.071C16.3028 17.364 16.7778 17.364 17.0708 17.071C18.4698 15.672 19.4218 13.891 19.8078 11.951C20.1938 10.011 19.9958 8.001 19.2378 6.173C18.4818 4.346 17.1998 2.784 15.5558 1.685C13.9098 0.586 11.9778 0 9.99977 0C8.02177 0 6.08877 0.586 4.44377 1.685C2.79977 2.785 1.51777 4.345 0.760771 6.173C0.00377136 8 -0.194229 10.011 0.191771 11.951C0.577771 13.891 1.52977 15.672 2.92877 17.071C3.22177 17.364 3.69677 17.364 3.98877 17.071C4.28177 16.778 4.28177 16.303 3.98877 16.011C2.80077 14.821 1.99077 13.307 1.66277 11.658C1.33477 10.009 1.50277 8.3 2.14677 6.748C2.78977 5.194 3.88077 3.867 5.27777 2.933ZM9.99977 5.5C9.10977 5.5 8.23977 5.764 7.49977 6.258C6.75977 6.753 6.18277 7.456 5.84277 8.278C5.50177 9.1 5.41277 10.005 5.58577 10.878C5.75977 11.751 6.18877 12.553 6.81777 13.182C7.11077 13.475 7.11077 13.95 6.81777 14.242C6.52477 14.535 6.04977 14.535 5.75777 14.242C4.91777 13.403 4.34677 12.334 4.11477 11.17C3.88377 10.007 4.00277 8.8 4.45677 7.704C4.91077 6.608 5.67977 5.67 6.66677 5.01C7.65277 4.351 8.81277 4 9.99977 4C11.1868 4 12.3468 4.352 13.3328 5.011C14.3198 5.671 15.0888 6.608 15.5428 7.704C15.9968 8.8 16.1158 10.007 15.8848 11.17C15.6528 12.334 15.0818 13.403 14.2428 14.243C13.9498 14.536 13.4748 14.536 13.1818 14.243C12.8888 13.95 12.8888 13.475 13.1818 13.182C13.8118 12.552 14.2398 11.751 14.4128 10.878C14.5868 10.005 14.4978 9.1 14.1568 8.278C13.8168 7.456 13.2398 6.753 12.4998 6.258C11.7598 5.764 10.8898 5.5 9.99977 5.5ZM10.8748 11.799C11.5408 11.474 11.9998 10.79 11.9998 10C11.9998 8.895 11.1048 8 9.99977 8C8.89477 8 7.99977 8.895 7.99977 10C7.99977 10.79 8.45877 11.474 9.12477 11.799V19C9.12477 19.483 9.51677 19.875 9.99977 19.875C10.4828 19.875 10.8748 19.483 10.8748 19V11.799Z" fill="#030303"/>
</svg>
