<svg width="18" height="20" viewBox="0 0 18 20" fill="none" xmlns="http://www.w3.org/2000/svg">
<path fill-rule="evenodd" clip-rule="evenodd" d="M3.379 14.5H16C16.276 14.5 16.5 14.276 16.5 14V2C16.5 1.724 16.276 1.5 16 1.5H2C1.724 1.5 1.5 1.724 1.5 2V16.379L2.94 14.939L3.379 14.5ZM1.5 18.5L1.467 18.533L1.207 18.793L0.854 19.146C0.539 19.461 0 19.238 0 18.793V2C0 0.895 0.895 0 2 0H16C17.105 0 18 0.895 18 2V14C18 15.105 17.105 16 16 16H4L1.5 18.5ZM9 3C9.552 3 10 3.448 10 4V8C10 8.552 9.552 9 9 9C8.448 9 8 8.552 8 8V4C8 3.448 8.448 3 9 3ZM9 12.75C9.69 12.75 10.25 12.19 10.25 11.5C10.25 10.81 9.69 10.25 9 10.25C8.31 10.25 7.75 10.81 7.75 11.5C7.75 12.19 8.31 12.75 9 12.75Z" fill="#030303"/>
</svg>
