<svg width="20" height="21" viewBox="0 0 20 21" fill="none" xmlns="http://www.w3.org/2000/svg">
<path fill-rule="evenodd" clip-rule="evenodd" d="M12.1408 4.91403L11.4728 4.63603L10.7088 1.95703H8.97176L8.20576 4.63703L7.53776 4.91403C7.05576 5.11403 6.60376 5.37703 6.19376 5.69203L5.61876 6.13203L2.91276 5.45503L2.04476 6.95903L3.98276 8.96203L3.88976 9.67803C3.85676 9.93303 3.83976 10.192 3.83976 10.457C3.83976 10.721 3.85676 10.981 3.88976 11.236L3.98276 11.952L2.04476 13.955L2.91276 15.459L5.61876 14.782L6.19376 15.222C6.60376 15.537 7.05576 15.799 7.53776 16L8.20576 16.278L8.97176 18.957H10.7088L11.4738 16.277L12.1418 16C12.6248 15.8 13.0758 15.537 13.4868 15.222L14.0608 14.782L16.7668 15.459L17.6358 13.955L15.6978 11.952L15.7898 11.236C15.8228 10.981 15.8398 10.722 15.8398 10.457C15.8398 10.193 15.8228 9.93303 15.7898 9.67803L15.6978 8.96203L17.6358 6.95903L16.7668 5.45503L14.0608 6.13203L13.4868 5.69203C13.0768 5.37703 12.6248 5.11503 12.1418 4.91403H12.1408ZM12.7168 3.52803L12.0468 1.18203C11.9238 0.753031 11.5308 0.457031 11.0848 0.457031H8.59276C8.14676 0.457031 7.75476 0.753031 7.63176 1.18203L6.96176 3.52903C6.35676 3.78003 5.79176 4.10903 5.27976 4.50103L2.90976 3.90803C2.47676 3.80003 2.02476 3.99203 1.80176 4.37803L0.555757 6.53703C0.332757 6.92303 0.392757 7.41103 0.702757 7.73203L2.40076 9.48703C2.36076 9.80503 2.33876 10.129 2.33876 10.458C2.33876 10.787 2.35976 11.111 2.40076 11.428L0.702757 13.184C0.392757 13.504 0.332757 13.993 0.555757 14.379L1.80176 16.537C2.02476 16.923 2.47676 17.115 2.91076 17.007L5.27976 16.414C5.79176 16.807 6.35676 17.134 6.96076 17.386L7.63076 19.733C7.75476 20.162 8.14676 20.458 8.59276 20.458H11.0848C11.5308 20.458 11.9238 20.162 12.0458 19.733L12.7158 17.386C13.3208 17.135 13.8858 16.806 14.3978 16.414L16.7678 17.007C17.2008 17.115 17.6528 16.923 17.8768 16.537L19.1218 14.379C19.3448 13.993 19.2848 13.505 18.9748 13.184L17.2768 11.429C17.3168 11.111 17.3388 10.787 17.3388 10.458C17.3388 10.129 17.3178 9.80503 17.2768 9.48803L18.9748 7.73203C19.2848 7.41203 19.3448 6.92303 19.1218 6.53703L17.8768 4.37703C17.6528 3.99103 17.2008 3.79903 16.7668 3.90703L14.3978 4.50003C13.8858 4.10703 13.3208 3.78003 12.7168 3.52803ZM13.3388 10.457C13.3388 12.39 11.7718 13.957 9.83876 13.957C7.90576 13.957 6.33876 12.39 6.33876 10.457C6.33876 8.52403 7.90576 6.95703 9.83876 6.95703C11.7718 6.95703 13.3388 8.52403 13.3388 10.457ZM11.8388 10.457C11.8388 11.562 10.9438 12.457 9.83876 12.457C8.73376 12.457 7.83876 11.562 7.83876 10.457C7.83876 9.35203 8.73376 8.45703 9.83876 8.45703C10.9438 8.45703 11.8388 9.35203 11.8388 10.457Z" fill="#030303"/>
</svg>
