<svg width="20" height="20" viewBox="0 0 20 20" fill="none" xmlns="http://www.w3.org/2000/svg">
<path fill-rule="evenodd" clip-rule="evenodd" d="M4.5 1.5H15.5V7C15.5 10.038 13.038 12.5 10 12.5C6.962 12.5 4.5 10.038 4.5 7V1.5ZM3 1.5C3 0.672 3.672 0 4.5 0H15.5C16.328 0 17 0.672 17 1.5V2H19C19.552 2 20 2.448 20 3V6C20 8.493 18.175 10.56 15.788 10.938C14.706 12.526 12.988 13.645 11 13.929V15.5H12.5C13.328 15.5 14 16.172 14 17V20H6V17C6 16.172 6.672 15.5 7.5 15.5H9V13.93C7.013 13.645 5.294 12.526 4.212 10.938C1.825 10.56 0 8.493 0 6V3C0 2.448 0.448 2 1 2H3V1.5ZM3 3.25H1.25V6C1.25 7.508 2.14 8.808 3.424 9.403C3.15 8.654 3 7.845 3 7V3.25ZM16.576 9.403C17.86 8.808 18.75 7.508 18.75 6V3.25H17V7C17 7.844 16.85 8.654 16.576 9.403ZM7.5 18.5V17H12.5V18.5H7.5Z" fill="#030303"/>
</svg>
