<svg width="20" height="20" viewBox="0 0 20 20" fill="none" xmlns="http://www.w3.org/2000/svg">
<path fill-rule="evenodd" clip-rule="evenodd" d="M10 18.5C11.894 18.5 13.643 17.88 15.055 16.834C14.6348 15.8537 13.9386 15.0168 13.0513 14.425C12.164 13.8333 11.1237 13.5123 10.0572 13.5012C8.99073 13.4901 7.94402 13.7893 7.04452 14.3623C6.14502 14.9354 5.43156 15.7577 4.991 16.729C4.97549 16.7633 4.95744 16.7964 4.937 16.828C6.40039 17.9164 8.17625 18.5028 10 18.5ZM14.079 13.311C14.9792 13.9565 15.7133 14.8065 16.221 15.791C17.3488 14.5795 18.0984 13.065 18.3777 11.4334C18.6569 9.8019 18.4537 8.12433 17.793 6.60665C17.1324 5.08896 16.0429 3.7972 14.6585 2.88994C13.274 1.98267 11.6548 1.49937 9.9995 1.49937C8.34424 1.49937 6.725 1.98267 5.34054 2.88994C3.95608 3.7972 2.86664 5.08896 2.20595 6.60665C1.54526 8.12433 1.34208 9.8019 1.62134 11.4334C1.90061 13.065 2.65016 14.5795 3.778 15.791C4.2388 14.8976 4.88662 14.114 5.67738 13.4933C6.46813 12.8727 7.38328 12.4297 8.36058 12.1944C9.33787 11.9591 10.3544 11.937 11.341 12.1297C12.3275 12.3224 13.2611 12.7253 14.078 13.311H14.079ZM10 20C15.523 20 20 15.523 20 10C20 4.477 15.523 0 10 0C4.477 0 0 4.477 0 10C0 15.523 4.477 20 10 20ZM12 7.5C12 8.03043 11.7893 8.53914 11.4142 8.91421C11.0391 9.28929 10.5304 9.5 10 9.5C9.46957 9.5 8.96086 9.28929 8.58579 8.91421C8.21071 8.53914 8 8.03043 8 7.5C8 6.96957 8.21071 6.46086 8.58579 6.08579C8.96086 5.71071 9.46957 5.5 10 5.5C10.5304 5.5 11.0391 5.71071 11.4142 6.08579C11.7893 6.46086 12 6.96957 12 7.5ZM13.5 7.5C13.5 7.95963 13.4095 8.41475 13.2336 8.83939C13.0577 9.26403 12.7999 9.64987 12.4749 9.97487C12.1499 10.2999 11.764 10.5577 11.3394 10.7336C10.9148 10.9095 10.4596 11 10 11C9.54037 11 9.08525 10.9095 8.66061 10.7336C8.23597 10.5577 7.85013 10.2999 7.52513 9.97487C7.20012 9.64987 6.94231 9.26403 6.76642 8.83939C6.59053 8.41475 6.5 7.95963 6.5 7.5C6.5 6.57174 6.86875 5.6815 7.52513 5.02513C8.1815 4.36875 9.07174 4 10 4C10.9283 4 11.8185 4.36875 12.4749 5.02513C13.1313 5.6815 13.5 6.57174 13.5 7.5Z" fill="#030303"/>
</svg>
