<svg width="22" height="19" viewBox="0 0 22 19" fill="none" xmlns="http://www.w3.org/2000/svg">
<path fill-rule="evenodd" clip-rule="evenodd" d="M10.2711 0.688784C10.4939 0.564973 10.7447 0.5 10.9996 0.5C11.2545 0.5 11.5052 0.564973 11.7281 0.688784L20.7281 5.68878C20.962 5.81861 21.1569 6.00863 21.2926 6.23914C21.4284 6.46966 21.5 6.73227 21.5001 6.99978V13.9998C21.5001 14.1987 21.4211 14.3895 21.2804 14.5301C21.1398 14.6708 20.949 14.7498 20.7501 14.7498C20.5512 14.7498 20.3604 14.6708 20.2198 14.5301C20.0791 14.3895 20.0001 14.1987 20.0001 13.9998V8.71578L18.5001 9.54878V14.9998C18.5001 15.1971 18.4223 15.3866 18.2836 15.527C18.1449 15.6674 17.9564 15.7474 17.7591 15.7498C15.8591 15.7728 14.6831 16.1498 13.8181 16.6458C13.1081 17.0528 12.5891 17.5408 12.0011 18.0938C11.8421 18.2428 11.6791 18.3958 11.5051 18.5538C11.3607 18.6856 11.1706 18.7557 10.9752 18.7494C10.7798 18.743 10.5946 18.6606 10.4591 18.5198L10.3831 18.4398C9.68109 17.7098 9.08009 17.0848 8.21909 16.6078C7.34409 16.1228 6.14509 15.7678 4.24309 15.7498C4.04539 15.7479 3.85642 15.6681 3.71728 15.5277C3.57814 15.3872 3.50008 15.1975 3.50009 14.9998V9.54978L1.27209 8.30978C1.03836 8.17984 0.843626 7.98977 0.708047 7.75927C0.572468 7.52876 0.500977 7.2662 0.500977 6.99878C0.500977 6.73136 0.572468 6.46881 0.708047 6.2383C0.843626 6.0078 1.03836 5.81773 1.27209 5.68778L10.2721 0.687784L10.2711 0.688784ZM5.00009 10.3828V14.2738C6.70309 14.3698 7.94609 14.7418 8.94609 15.2958C9.80409 15.7708 10.4541 16.3658 11.0261 16.9478C11.6011 16.4078 12.2471 15.8178 13.0721 15.3448C14.0601 14.7788 15.2871 14.3818 17.0001 14.2768V10.3828L11.7281 13.3108C11.5052 13.4346 11.2545 13.4996 10.9996 13.4996C10.7447 13.4996 10.4939 13.4346 10.2711 13.3108L5.00009 10.3828ZM11.0001 1.99978L20.0001 6.99978L11.0001 11.9998L2.00009 6.99978L11.0001 1.99978Z" fill="#030303"/>
</svg>
