<svg width="18" height="20" viewBox="0 0 18 20" fill="none" xmlns="http://www.w3.org/2000/svg">
<path fill-rule="evenodd" clip-rule="evenodd" d="M8.58 0.0300083C9.125 -0.0479917 9.68 0.0270083 10.186 0.244008C10.692 0.462008 11.128 0.814008 11.446 1.26401C11.765 1.71201 11.954 2.24001 11.993 2.78901C12.031 3.33901 11.918 3.88801 11.665 4.37701C11.413 4.86601 11.031 5.27601 10.561 5.56201C10.307 5.71601 10.034 5.83201 9.751 5.90501V6.61001L16.931 11.636C17.198 11.823 17.314 12.163 17.215 12.476C17.117 12.788 16.827 13 16.5 13H15V16C15 16.552 14.552 17 14 17H12V20H11V19H10V20H9V19H8V20H7V19H6V20H5V19H4V20H3V13H1.5C1.173 13 0.883 12.788 0.785 12.476C0.686 12.163 0.802 11.823 1.07 11.636L8.25 6.61001V5.25001C8.25 4.83601 8.586 4.50001 9 4.50001C9.275 4.50001 9.545 4.42401 9.78 4.28101C10.015 4.13801 10.207 3.93301 10.333 3.68801C10.459 3.44401 10.516 3.16901 10.496 2.89501C10.477 2.62001 10.382 2.35601 10.223 2.13201C10.063 1.90701 9.846 1.73201 9.593 1.62201C9.34 1.51301 9.063 1.47601 8.79 1.51501C8.518 1.55301 8.26 1.66601 8.048 1.84101C7.835 2.01501 7.675 2.24501 7.584 2.50501C7.447 2.89601 7.02 3.10201 6.629 2.96501C6.238 2.82901 6.031 2.40101 6.168 2.01001C6.35 1.49001 6.671 1.03001 7.096 0.682008C7.521 0.332008 8.035 0.107008 8.58 0.0300083ZM12 13H13.5V15.5H12V13ZM14.12 11.5H3.88L9 7.91501L14.12 11.5ZM4.5 13H10.5V17.5H4.5V13Z" fill="#030303"/>
</svg>
