<svg width="22" height="16" viewBox="0 0 22 16" fill="none" xmlns="http://www.w3.org/2000/svg">
<path fill-rule="evenodd" clip-rule="evenodd" d="M4.636 1.63622C4.929 1.34322 4.929 0.868219 4.636 0.576219C4.343 0.282219 3.868 0.282219 3.576 0.576219C2.6 1.55022 1.826 2.70822 1.299 3.98222C0.772 5.25622 0.5 6.62222 0.5 8.00022C0.5 9.37922 0.772 10.7442 1.3 12.0182C1.827 13.2922 2.6 14.4502 3.575 15.4252C3.868 15.7182 4.343 15.7182 4.636 15.4252C4.929 15.1322 4.929 14.6572 4.636 14.3642C3.8 13.5282 3.137 12.5362 2.686 11.4442C2.232 10.3522 2 9.18222 2 8.00022C2 6.81822 2.233 5.64822 2.685 4.55622C3.137 3.46422 3.8 2.47222 4.636 1.63622ZM7.464 3.40422C7.757 3.69622 7.757 4.17122 7.464 4.46422C7 4.92822 6.632 5.48022 6.381 6.08622C6.129 6.69322 6 7.34322 6 8.00022C6 8.65622 6.13 9.30622 6.38 9.91322C6.632 10.5202 7 11.0712 7.464 11.5352C7.757 11.8282 7.757 12.3032 7.464 12.5952C7.172 12.8892 6.697 12.8892 6.404 12.5952C5.8 11.9922 5.321 11.2752 4.994 10.4872C4.669 9.70022 4.5 8.85322 4.5 8.00022C4.5 7.14622 4.668 6.30022 4.995 5.51222C5.321 4.72422 5.8 4.00722 6.404 3.40422C6.697 3.11122 7.172 3.11122 7.464 3.40422ZM14.536 3.40422C14.828 3.11122 15.303 3.11122 15.596 3.40422C16.816 4.62322 17.5 6.27622 17.5 8.00022C17.5 9.72422 16.815 11.3772 15.596 12.5962C15.303 12.8892 14.828 12.8892 14.536 12.5962C14.243 12.3032 14.243 11.8282 14.536 11.5362C15.473 10.5972 16 9.32522 16 8.00022C16 6.67522 15.473 5.40222 14.536 4.46422C14.243 4.17122 14.243 3.69622 14.536 3.40422ZM17.364 0.575219C17.657 0.282219 18.132 0.282219 18.424 0.575219C20.395 2.54522 21.5 5.21522 21.5 8.00022C21.5 10.7852 20.394 13.4562 18.425 15.4252C18.132 15.7182 17.657 15.7182 17.364 15.4252C17.071 15.1322 17.071 14.6572 17.364 14.3642C19.052 12.6762 20 10.3872 20 8.00022C20 5.61322 19.052 3.32422 17.364 1.63622C17.071 1.34322 17.071 0.868219 17.364 0.576219V0.575219ZM11 10.0002C12.105 10.0002 13 9.10522 13 8.00022C13 6.89622 12.105 6.00022 11 6.00022C9.895 6.00022 9 6.89622 9 8.00022C9 9.10522 9.895 10.0002 11 10.0002Z" fill="#030303"/>
</svg>
