<svg width="18" height="18" viewBox="0 0 18 18" fill="none" xmlns="http://www.w3.org/2000/svg">
<path fill-rule="evenodd" clip-rule="evenodd" d="M13.2958 13.9958C11.7381 15.3718 9.70602 16.0875 7.62984 15.9915C5.55367 15.8954 3.59636 14.9951 2.17234 13.4812C0.748312 11.9673 -0.030639 9.95867 0.000405245 7.88051C0.0314495 5.80234 0.870052 3.81783 2.33866 2.34715C3.80727 0.876459 5.79059 0.0350522 7.86871 0.00107061C9.94683 -0.032911 11.9566 0.7432 13.4725 2.16508C14.9884 3.58697 15.8915 5.543 15.9904 7.61904C16.0894 9.69508 15.3766 11.7281 14.0028 13.2878L17.9118 17.1978L17.2048 17.9048L13.2958 13.9958ZM14.9998 7.99979C14.9998 6.14328 14.2623 4.3628 12.9495 3.05004C11.6368 1.73729 9.8563 0.999792 7.99978 0.999792C6.14327 0.999792 4.36279 1.73729 3.05004 3.05004C1.73728 4.3628 0.999784 6.14328 0.999784 7.99979C0.999784 8.91905 1.18084 9.8293 1.53263 10.6786C1.88441 11.5279 2.40003 12.2995 3.05004 12.9495C3.70005 13.5995 4.47172 14.1152 5.321 14.4669C6.17028 14.8187 7.08053 14.9998 7.99978 14.9998C8.91904 14.9998 9.82929 14.8187 10.6786 14.4669C11.5278 14.1152 12.2995 13.5995 12.9495 12.9495C13.5995 12.2995 14.1152 11.5279 14.4669 10.6786C14.8187 9.8293 14.9998 8.91905 14.9998 7.99979Z" fill="#0F0F0F"/>
</svg>
