<svg width="21" height="20" viewBox="0 0 21 20" fill="none" xmlns="http://www.w3.org/2000/svg">
<path fill-rule="evenodd" clip-rule="evenodd" d="M2.11601 4.99766L18.906 2.33766L19.063 3.32566L2.27301 5.98566L2.11601 4.99766ZM0.635011 5.23266C0.505011 4.41366 1.06301 3.64566 1.88201 3.51566L18.672 0.856665C19.491 0.726665 20.259 1.28566 20.388 2.10366L20.545 3.09166L20.779 4.57266L19.298 4.80766L5.46301 6.99866H21V18.4987C21 19.3277 20.328 19.9987 19.5 19.9987H2.50001C1.67201 19.9987 1.00001 19.3277 1.00001 18.4987V7.53866L0.790011 6.21966L0.634011 5.23266H0.635011ZM8.33301 8.49866H6.33301L8.00001 10.9987H5.00001L3.33301 8.49866H2.50001V18.4987H19.5V8.49866H16.333L18 10.9997H15L13.333 8.49866H11.333L13 10.9997H10L8.33301 8.49866Z" fill="#030303"/>
</svg>
