<svg width="15" height="20" viewBox="0 0 15 20" fill="none" xmlns="http://www.w3.org/2000/svg">
<path fill-rule="evenodd" clip-rule="evenodd" d="M15 0.999887C15 0.728887 14.854 0.478887 14.617 0.345887C14.38 0.212887 14.09 0.218887 13.859 0.359887L4.859 5.85989C4.636 5.99589 4.5 6.23889 4.5 6.49989V14.4009C4.059 14.1459 3.546 13.9999 3 13.9999C1.343 13.9999 0 15.3429 0 16.9999C0 18.6569 1.343 19.9999 3 19.9999C4.657 19.9999 6 18.6569 6 16.9999V9.91989L13.5 5.33689V11.4009C13.059 11.1459 12.546 10.9999 12 10.9999C10.343 10.9999 9 12.3429 9 13.9999C9 15.6569 10.343 16.9999 12 16.9999C13.657 16.9999 15 15.6569 15 13.9999V0.999887ZM13.5 13.9999C13.5 13.1719 12.828 12.4999 12 12.4999C11.172 12.4999 10.5 13.1719 10.5 13.9999C10.5 14.8279 11.172 15.4999 12 15.4999C12.828 15.4999 13.5 14.8279 13.5 13.9999ZM4.5 16.9999C4.5 16.1719 3.828 15.4999 3 15.4999C2.172 15.4999 1.5 16.1719 1.5 16.9999C1.5 17.8279 2.172 18.4999 3 18.4999C3.828 18.4999 4.5 17.8279 4.5 16.9999ZM13.5 3.57989L6 8.16189V6.91989L13.5 2.33589V3.57989Z" fill="#030303"/>
</svg>
