<svg width="22" height="20" viewBox="0 0 22 20" fill="none" xmlns="http://www.w3.org/2000/svg">
<path fill-rule="evenodd" clip-rule="evenodd" d="M2.167 0C1.247 0 0.5 0.748 0.5 1.672C0.5 3.81 3.5 5.351 3.5 5.351C3.5 5.351 6.5 3.81 6.5 1.671C6.5 0.749 5.753 0 4.833 0C4.288 0 3.804 0.263 3.5 0.669C3.196 0.263 2.712 0 2.167 0ZM15.5 17L17 15H20L21.5 17L18.5 20L15.5 17ZM11 7L13.5 8.5V11.5L11 13L8.5 11.5V8.5L11 7ZM11 3.75C11.69 3.75 12.25 3.19 12.25 2.5C12.25 1.81 11.69 1.25 11 1.25C10.31 1.25 9.75 1.81 9.75 2.5C9.75 3.19 10.31 3.75 11 3.75ZM11 5C12.38 5 13.5 3.88 13.5 2.5C13.5 1.12 12.38 0 11 0C9.62 0 8.5 1.12 8.5 2.5C8.5 3.88 9.62 5 11 5ZM12.25 17.5C12.25 18.19 11.69 18.75 11 18.75C10.31 18.75 9.75 18.19 9.75 17.5C9.75 16.81 10.31 16.25 11 16.25C11.69 16.25 12.25 16.81 12.25 17.5ZM13.5 17.5C13.5 18.88 12.38 20 11 20C9.62 20 8.5 18.88 8.5 17.5C8.5 16.12 9.62 15 11 15C12.38 15 13.5 16.12 13.5 17.5ZM3.5 18.75C4.19 18.75 4.75 18.19 4.75 17.5C4.75 16.81 4.19 16.25 3.5 16.25C2.81 16.25 2.25 16.81 2.25 17.5C2.25 18.19 2.81 18.75 3.5 18.75ZM3.5 20C4.88 20 6 18.88 6 17.5C6 16.12 4.88 15 3.5 15C2.12 15 1 16.12 1 17.5C1 18.88 2.12 20 3.5 20ZM19.75 2.5C19.75 3.19 19.19 3.75 18.5 3.75C17.81 3.75 17.25 3.19 17.25 2.5C17.25 1.81 17.81 1.25 18.5 1.25C19.19 1.25 19.75 1.81 19.75 2.5ZM21 2.5C21 3.88 19.88 5 18.5 5C17.12 5 16 3.88 16 2.5C16 1.12 17.12 0 18.5 0C19.88 0 21 1.12 21 2.5ZM18.5 11.25C19.19 11.25 19.75 10.69 19.75 10C19.75 9.31 19.19 8.75 18.5 8.75C17.81 8.75 17.25 9.31 17.25 10C17.25 10.69 17.81 11.25 18.5 11.25ZM18.5 12.5C19.88 12.5 21 11.38 21 10C21 8.62 19.88 7.5 18.5 7.5C17.12 7.5 16 8.62 16 10C16 11.38 17.12 12.5 18.5 12.5ZM4.75 10C4.75 10.69 4.19 11.25 3.5 11.25C2.81 11.25 2.25 10.69 2.25 10C2.25 9.31 2.81 8.75 3.5 8.75C4.19 8.75 4.75 9.31 4.75 10ZM6 10C6 11.38 4.88 12.5 3.5 12.5C2.12 12.5 1 11.38 1 10C1 8.62 2.12 7.5 3.5 7.5C4.88 7.5 6 8.62 6 10Z" fill="#030303"/>
</svg>
