<svg width="18" height="21" viewBox="0 0 18 21" fill="none" xmlns="http://www.w3.org/2000/svg">
<path fill-rule="evenodd" clip-rule="evenodd" d="M9 1.5C8.672 1.5 8.347 1.565 8.043 1.69C7.74 1.816 7.464 2 7.233 2.232C7 2.464 6.816 2.74 6.69 3.043C6.565 3.347 6.5 3.672 6.5 4V5H11.5V4C11.5 3.672 11.435 3.347 11.31 3.043C11.184 2.74 11 2.464 10.768 2.233C10.536 2 10.26 1.816 9.957 1.69C9.653 1.565 9.328 1.5 9 1.5ZM13 4V5H16.5C17.328 5 18 5.672 18 6.5V17C18 19.21 16.21 21 14 21H4C1.79 21 0 19.21 0 17V6.5C0 5.672 0.672 5 1.5 5H5V4C5 3.475 5.103 2.955 5.304 2.47C5.505 1.984 5.8 1.543 6.172 1.172C6.543 0.8 6.984 0.505 7.469 0.304C7.955 0.104 8.475 0 9 0C9.525 0 10.045 0.103 10.53 0.304C11.016 0.506 11.457 0.8 11.828 1.172C12.2 1.543 12.495 1.984 12.695 2.469C12.896 2.955 13 3.475 13 4ZM9 11.5C8.672 11.5 8.347 11.435 8.043 11.31C7.74 11.184 7.464 11 7.233 10.768C7 10.536 6.816 10.26 6.69 9.957C6.565 9.653 6.5 9.328 6.5 9C6.5 8.586 6.164 8.25 5.75 8.25C5.336 8.25 5 8.586 5 9C5 9.525 5.103 10.045 5.304 10.53C5.505 11.016 5.8 11.457 6.172 11.828C6.543 12.2 6.984 12.495 7.469 12.695C7.955 12.896 8.475 13 9 13C9.525 13 10.045 12.896 10.53 12.695C11.016 12.495 11.457 12.2 11.828 11.828C12.2 11.457 12.495 11.016 12.695 10.531C12.896 10.045 13 9.525 13 9C13 8.586 12.664 8.25 12.25 8.25C11.836 8.25 11.5 8.586 11.5 9C11.5 9.328 11.435 9.653 11.31 9.957C11.184 10.26 11 10.536 10.768 10.767C10.536 11 10.26 11.184 9.957 11.31C9.653 11.435 9.328 11.5 9 11.5ZM1.5 6.5H16.5V17C16.5 18.38 15.38 19.5 14 19.5H4C2.62 19.5 1.5 18.38 1.5 17V6.5Z" fill="#030303"/>
</svg>
