<svg width="18" height="22" viewBox="0 0 18 22" fill="none" xmlns="http://www.w3.org/2000/svg">
<path fill-rule="evenodd" clip-rule="evenodd" d="M4.61016 14.7187L5.00216 14.4987V12.2587L4.46816 12.0307L3.52616 11.6267C2.65716 11.2547 2.12616 10.4767 2.08016 9.65268C2.03316 8.82968 2.47016 8.01068 3.28316 7.55568L12.1302 2.58968C13.3612 1.90068 14.9152 2.31968 15.5962 3.42268C16.2482 4.48068 15.9092 5.87468 14.7172 6.54068L13.3902 7.28368L13.0022 7.50068V9.74368L13.5322 9.97068L14.4742 10.3747C15.3432 10.7467 15.8742 11.5247 15.9202 12.3487C15.9672 13.1717 15.5302 13.9907 14.7172 14.4457L14.7152 14.4467L5.87016 19.4107L5.86916 19.4117C4.63816 20.0997 3.08516 19.6807 2.40416 18.5777C1.75216 17.5197 2.09116 16.1267 3.28316 15.4597L4.61016 14.7187ZM6.60316 20.7207C4.69816 21.7867 2.24716 21.1807 1.12816 19.3657C0.0711597 17.6527 0.58016 15.4757 2.24516 14.3407C2.34405 14.2733 2.44581 14.2102 2.55016 14.1517L3.87716 13.4097L2.93516 13.0057C2.68637 12.8993 2.44886 12.7683 2.22616 12.6147C1.26316 11.9487 0.64816 10.8967 0.58216 9.73768C0.50216 8.31568 1.26116 6.96768 2.55016 6.24768L11.3972 1.28168C13.3022 0.215678 15.7532 0.821678 16.8722 2.63668C17.9292 4.34968 17.4202 6.52668 15.7552 7.66168C15.6563 7.72947 15.5546 7.79286 15.4502 7.85168L14.1232 8.59368L15.0652 8.99668C15.3182 9.10568 15.5552 9.23668 15.7742 9.38868C16.7372 10.0547 17.3522 11.1057 17.4182 12.2647C17.4982 13.6877 16.7392 15.0347 15.4502 15.7557L6.60316 20.7207ZM7.00016 13.5667C7.00017 13.6105 7.01168 13.6535 7.03354 13.6914C7.05539 13.7293 7.08683 13.7609 7.1247 13.7828C7.16256 13.8048 7.20554 13.8164 7.24931 13.8166C7.29309 13.8167 7.33614 13.8054 7.37416 13.7837L11.8242 11.2167C11.8622 11.1947 11.8937 11.1632 11.9157 11.1252C11.9376 11.0872 11.9491 11.0441 11.9491 11.0002C11.9491 10.9563 11.9376 10.9132 11.9157 10.8752C11.8937 10.8372 11.8622 10.8056 11.8242 10.7837L7.37416 8.21668C7.33622 8.195 7.29326 8.18365 7.24956 8.18376C7.20587 8.18386 7.16296 8.19542 7.12513 8.21727C7.08729 8.23912 7.05584 8.27051 7.03391 8.30831C7.01199 8.3461 7.00035 8.38898 7.00016 8.43268V13.5667Z" fill="#030303"/>
</svg>
