<svg width="17" height="21" viewBox="0 0 17 21" fill="none" xmlns="http://www.w3.org/2000/svg">
<path fill-rule="evenodd" clip-rule="evenodd" d="M11 1L9.5 1.886L4.305 4.956C1.637 6.533 0 9.401 0 12.5C0 17.194 3.806 21 8.5 21C13.194 21 17 17.194 17 12.5V0L15.5 1L12.5 3L11 4V1ZM5.068 6.248L9.5 3.628V6.803L11.832 5.248L15.5 2.803V12.5C15.5 16.366 12.366 19.5 8.5 19.5C4.634 19.5 1.5 16.366 1.5 12.5C1.5 9.932 2.857 7.554 5.068 6.248ZM6 14C6 12.774 6.693 11.654 7.789 11.106L12 9V14C12 15.657 10.657 17 9 17C7.343 17 6 15.657 6 14Z" fill="#030303"/>
</svg>
