<svg width="4" height="16" viewBox="0 0 4 16" fill="none" xmlns="http://www.w3.org/2000/svg">
<path d="M2.229 12.9575C3.059 12.9575 3.729 13.6275 3.729 14.4575C3.729 15.2875 3.059 15.9575 2.229 15.9575C1.399 15.9575 0.729004 15.2875 0.729004 14.4575C0.729004 13.6275 1.399 12.9575 2.229 12.9575ZM0.729004 8.45752C0.729004 9.28752 1.399 9.95752 2.229 9.95752C3.059 9.95752 3.729 9.28752 3.729 8.45752C3.729 7.62752 3.059 6.95752 2.229 6.95752C1.399 6.95752 0.729004 7.62752 0.729004 8.45752ZM0.729004 2.45752C0.729004 3.28752 1.399 3.95752 2.229 3.95752C3.059 3.95752 3.729 3.28752 3.729 2.45752C3.729 1.62752 3.059 0.95752 2.229 0.95752C1.399 0.95752 0.729004 1.62752 0.729004 2.45752Z" fill="black"/>
</svg>
