<svg width="24" height="24" viewBox="0 0 24 24" fill="none" xmlns="http://www.w3.org/2000/svg">
<path d="M12 23C18.0751 23 23 18.0751 23 12C23 5.92487 18.0751 1 12 1C5.92487 1 1 5.92487 1 12C1 18.0751 5.92487 23 12 23Z" fill="#FF0033"/>
<path d="M12 6.25C15.17 6.25 17.75 8.83 17.75 12C17.75 15.17 15.17 17.75 12 17.75C8.83 17.75 6.25 15.17 6.25 12C6.25 8.83 8.83 6.25 12 6.25ZM12 5.25C8.27 5.25 5.25 8.27 5.25 12C5.25 15.73 8.27 18.75 12 18.75C15.73 18.75 18.75 15.73 18.75 12C18.75 8.27 15.73 5.25 12 5.25Z" fill="white"/>
<path d="M10 15L15 12L10 9V15Z" fill="white"/>
</svg>
