<svg width="24" height="24" viewBox="0 0 24 24" fill="none" xmlns="http://www.w3.org/2000/svg">
<path d="M22.64 13.2004C22.63 12.1604 22.02 7.22037 21.74 6.46037C21.55 5.96037 21.16 5.06037 20.43 4.51037C19.49 3.81037 18.73 3.68037 17.75 3.66037C17.06 3.64037 6.12002 5.03037 4.79002 5.51037C3.80002 5.88037 3.03002 6.35037 2.42002 6.95037C1.43002 7.93037 1.24002 8.88037 1.40002 10.5504C1.54002 12.0704 2.25002 17.1004 2.61002 18.1404C3.00002 19.2904 3.72002 20.1704 4.91002 20.3004C8.53002 20.6904 9.39001 18.7004 17.81 18.7204C20.36 18.7304 21.63 17.6104 22.16 16.6404C22.77 15.4904 22.65 13.9904 22.64 13.2004Z" fill="#FF0033"/>
<path d="M17.4702 4.0402C18.4102 4.0602 19.1402 4.1802 20.0302 4.8502C20.7302 5.3802 21.1102 6.2402 21.2802 6.7102C21.5602 7.4402 22.1302 12.1502 22.1402 13.1402C22.1502 13.9002 22.2602 15.3302 21.6702 16.4202C21.1702 17.3402 19.9602 18.4002 17.5402 18.4002C17.5302 18.4002 17.5302 18.4002 17.5202 18.4002C17.4802 18.4002 17.4502 18.4002 17.4102 18.4002C10.1802 18.4002 8.8602 19.9602 6.0802 19.9602C5.8102 19.9602 5.5202 19.9402 5.2102 19.9102C4.0802 19.7902 3.3902 18.9502 3.0202 17.8502C2.6802 16.8602 2.0102 12.0602 1.8702 10.6102C1.7202 9.0102 1.9002 8.1002 2.8502 7.1702C3.4302 6.6002 4.1702 6.1502 5.1202 5.8002C6.3802 5.3502 16.7302 4.0402 17.4702 4.0402ZM17.4702 3.2002C17.0002 3.2002 13.9402 3.5702 11.3802 3.9202C8.8202 4.2702 5.6002 4.7502 4.8402 5.0302C3.7802 5.4202 2.9402 5.9302 2.2802 6.5902C1.0502 7.8002 0.900204 9.0602 1.0502 10.7002C1.1702 11.9702 1.8502 16.9802 2.2402 18.1302C2.7702 19.6802 3.7902 20.6102 5.1302 20.7502C5.4602 20.7902 5.7702 20.8002 6.0902 20.8002C7.2602 20.8002 8.1902 20.5502 9.2702 20.2602C10.9602 19.8102 13.0702 19.2402 17.4202 19.2402H17.5302H17.5502C18.6202 19.2402 21.2302 19.0002 22.4102 16.8202C23.0402 15.6502 23.0102 14.2302 22.9902 13.3902C22.9902 13.3002 22.9902 13.2102 22.9802 13.1302C22.9702 12.1202 22.3902 7.2802 22.0602 6.4102C21.6802 5.4102 21.1702 4.6602 20.5302 4.1802C19.4802 3.3902 18.5902 3.2202 17.4902 3.2002H17.4802H17.4702Z" fill="#212121"/>
<path d="M15.2801 11.8509C15.2501 11.8709 15.2301 11.8809 15.2001 11.9009C14.9901 12.0409 14.7801 12.1809 14.5701 12.3309C14.0801 12.6609 11.2401 14.5909 11.2401 14.5909C11.0001 14.7709 10.5401 15.0609 10.3701 14.9709C10.2001 14.8809 10.1401 14.2509 10.1001 13.9509L10.0901 13.8809C10.0401 13.5209 9.63012 10.0509 9.58012 9.6709C9.56012 9.5609 9.50012 9.1709 9.62012 9.0809C9.75012 8.9809 10.0901 9.0909 10.2001 9.1309C10.8601 9.3409 14.1301 10.4809 15.1501 10.9909C15.1801 11.0109 15.2101 11.0209 15.2501 11.0309C15.4001 11.0909 15.6001 11.1809 15.6001 11.4209C15.6001 11.6509 15.4201 11.7609 15.2801 11.8509Z" fill="white"/>
<path d="M10.0401 9.59055C11.1801 9.97055 13.8101 10.9105 15.0501 11.4605C14.9001 11.5605 14.7501 11.6605 14.6001 11.7605C14.0201 12.1505 10.6601 14.4405 10.6601 14.4405L10.6401 14.4505L10.6201 14.4605C10.6201 14.4305 10.6101 14.4105 10.6101 14.3905L10.5901 14.2605L10.5801 14.1805C10.5401 13.8705 10.2701 11.6005 10.1001 10.2405C10.0801 9.98055 10.0601 9.76055 10.0401 9.59055ZM9.40008 8.56055C9.33008 8.56055 9.26008 8.57055 9.22008 8.61055C9.07008 8.72055 9.15008 9.19055 9.17008 9.31055C9.22008 9.76055 9.71008 13.8705 9.77008 14.3005L9.78008 14.3805C9.83008 14.7405 9.90008 15.4805 10.1101 15.5905C10.1401 15.6005 10.1701 15.6105 10.2101 15.6105C10.4601 15.6105 10.8901 15.3305 11.1401 15.1405C11.1401 15.1405 14.5001 12.8505 15.0801 12.4605C15.3301 12.2905 15.5801 12.1205 15.8301 11.9505C15.8601 11.9305 15.8901 11.9105 15.9301 11.8905C16.1001 11.7905 16.3101 11.6605 16.3101 11.3905C16.3001 11.1005 16.0701 11.0005 15.9001 10.9305C15.8601 10.9105 15.8201 10.9005 15.7901 10.8805C14.5801 10.2705 10.7001 8.92055 9.92008 8.67055C9.80008 8.63055 9.58008 8.56055 9.40008 8.56055Z" fill="#212121"/>
</svg>
