<svg width="23" height="19" viewBox="0 0 23 19" fill="none" xmlns="http://www.w3.org/2000/svg">
<path fill-rule="evenodd" clip-rule="evenodd" d="M11.8389 5.20689L11.0669 4.74289L6.88087 2.23189L2.33887 5.25989V11.5669L11.8389 16.7469L21.3389 11.5659V5.25989L16.7969 2.23189L12.6109 4.74289L11.8389 5.20689ZM11.8389 3.45689L7.65287 0.944886C7.15587 0.646886 6.53087 0.661886 6.04887 0.983886L1.50687 4.01189C1.08987 4.28989 0.838867 4.75689 0.838867 5.25989V11.5669C0.838867 12.1149 1.13887 12.6209 1.62087 12.8829L11.1209 18.0649C11.5679 18.3089 12.1099 18.3089 12.5569 18.0649L22.0569 12.8829C22.5389 12.6209 22.8389 12.1149 22.8389 11.5669V5.25989C22.8389 4.75789 22.5889 4.28989 22.1709 4.01189L17.6289 0.983886C17.1469 0.661886 16.5219 0.646886 16.0249 0.944886L11.8389 3.45689ZM15.3389 9.70689C15.3389 10.3969 14.7789 10.9569 14.0889 10.9569C13.3989 10.9569 12.8389 10.3969 12.8389 9.70689C12.8389 9.01689 13.3989 8.45689 14.0889 8.45689C14.7789 8.45689 15.3389 9.01689 15.3389 9.70689ZM6.83887 5.45689C6.42487 5.45689 6.08887 5.79289 6.08887 6.20689V7.70689H4.58887C4.17487 7.70689 3.83887 8.04289 3.83887 8.45689C3.83887 8.87089 4.17487 9.20689 4.58887 9.20689H6.08887V10.7069C6.08887 11.1209 6.42487 11.4569 6.83887 11.4569C7.25287 11.4569 7.58887 11.1209 7.58887 10.7069V9.20689H9.08887C9.50287 9.20689 9.83887 8.87089 9.83887 8.45689C9.83887 8.04289 9.50287 7.70689 9.08887 7.70689H7.58887V6.20689C7.58887 5.79289 7.25287 5.45689 6.83887 5.45689ZM17.5889 8.45689C18.2789 8.45689 18.8389 7.89689 18.8389 7.20689C18.8389 6.51689 18.2789 5.95689 17.5889 5.95689C16.8989 5.95689 16.3389 6.51689 16.3389 7.20689C16.3389 7.89689 16.8989 8.45689 17.5889 8.45689Z" fill="#FF0000"/>
</svg>
