<svg width="16" height="21" viewBox="0 0 16 21" fill="none" xmlns="http://www.w3.org/2000/svg">
<path fill-rule="evenodd" clip-rule="evenodd" d="M15.8389 1.45692C15.8389 1.18592 15.6929 0.935918 15.4559 0.802918C15.2189 0.669918 14.9289 0.675918 14.6979 0.816918L5.69787 6.31692C5.47487 6.45292 5.33887 6.69592 5.33887 6.95692V14.8579C4.89787 14.6029 4.38487 14.4569 3.83887 14.4569C2.18187 14.4569 0.838867 15.7999 0.838867 17.4569C0.838867 19.1139 2.18187 20.4569 3.83887 20.4569C5.49587 20.4569 6.83887 19.1139 6.83887 17.4569V10.3769L14.3389 5.79392V11.8579C13.8979 11.6029 13.3849 11.4569 12.8389 11.4569C11.1819 11.4569 9.83887 12.7999 9.83887 14.4569C9.83887 16.1139 11.1819 17.4569 12.8389 17.4569C14.4959 17.4569 15.8389 16.1139 15.8389 14.4569V1.45692ZM14.3389 14.4569C14.3389 13.6289 13.6669 12.9569 12.8389 12.9569C12.0109 12.9569 11.3389 13.6289 11.3389 14.4569C11.3389 15.2849 12.0109 15.9569 12.8389 15.9569C13.6669 15.9569 14.3389 15.2849 14.3389 14.4569ZM5.33887 17.4569C5.33887 16.6289 4.66687 15.9569 3.83887 15.9569C3.01087 15.9569 2.33887 16.6289 2.33887 17.4569C2.33887 18.2849 3.01087 18.9569 3.83887 18.9569C4.66687 18.9569 5.33887 18.2849 5.33887 17.4569ZM14.3389 4.03692L6.83887 8.61892V7.37692L14.3389 2.79292V4.03692Z" fill="#FC0000"/>
</svg>
