<svg width="18" height="21" viewBox="0 0 18 21" fill="none" xmlns="http://www.w3.org/2000/svg">
<path fill-rule="evenodd" clip-rule="evenodd" d="M4.87286 14.4198L5.26485 14.1998V11.9598L4.73086 11.7318L3.78886 11.3278C2.91986 10.9558 2.38886 10.1778 2.34286 9.35385C2.29586 8.53085 2.73286 7.71185 3.54586 7.25685L12.3929 2.29085C13.6239 1.60185 15.1779 2.02085 15.8589 3.12385C16.5109 4.18185 16.1719 5.57585 14.9799 6.24185L13.6529 6.98485L13.2649 7.20185V9.44485L13.7949 9.67185L14.7369 10.0758C15.6059 10.4478 16.1369 11.2258 16.1829 12.0498C16.2299 12.8728 15.7929 13.6918 14.9799 14.1468L14.9779 14.1478L6.13285 19.1118L6.13186 19.1129C4.90086 19.8009 3.34786 19.3818 2.66686 18.2788C2.01486 17.2208 2.35386 15.8278 3.54586 15.1608L4.87286 14.4198ZM6.86585 20.4219C4.96085 21.4879 2.50985 20.8818 1.39086 19.0668C0.333855 17.3538 0.842855 15.1768 2.50786 14.0418C2.60674 13.9745 2.70851 13.9114 2.81286 13.8528L4.13986 13.1108L3.19786 12.7068C2.94907 12.6005 2.71155 12.4695 2.48886 12.3158C1.52586 11.6498 0.910855 10.5978 0.844855 9.43885C0.764855 8.01685 1.52386 6.66885 2.81286 5.94885L11.6599 0.98285C13.5649 -0.0831501 16.0159 0.52285 17.1349 2.33785C18.1919 4.05085 17.6829 6.22785 16.0179 7.36285C15.919 7.43064 15.8173 7.49403 15.7129 7.55285L14.3859 8.29485L15.3279 8.69785C15.5809 8.80685 15.8179 8.93785 16.0369 9.08985C16.9999 9.75585 17.6149 10.8068 17.6809 11.9658C17.7609 13.3888 17.0019 14.7359 15.7129 15.4569L6.86585 20.4219ZM7.26286 13.2678C7.26287 13.3116 7.27438 13.3546 7.29623 13.3926C7.31809 13.4305 7.34952 13.462 7.38739 13.484C7.42526 13.506 7.46823 13.5176 7.51201 13.5178C7.55579 13.5179 7.59884 13.5066 7.63685 13.4848L12.0869 10.9178C12.1249 10.8959 12.1564 10.8643 12.1784 10.8263C12.2003 10.7883 12.2118 10.7452 12.2118 10.7013C12.2118 10.6575 12.2003 10.6144 12.1784 10.5764C12.1564 10.5384 12.1249 10.5068 12.0869 10.4848L7.63685 7.91785C7.59891 7.89618 7.55595 7.88483 7.51226 7.88493C7.46856 7.88503 7.42566 7.89659 7.38782 7.91844C7.34998 7.94029 7.31853 7.97168 7.29661 8.00948C7.27468 8.04727 7.26304 8.09015 7.26286 8.13385V13.2678Z" fill="#FF0101"/>
</svg>
